# Made in Blockbench 4.9.4
mtllib Can.mtl

o cylinder
v -0.17445227278524747 1.43828125 0.9533749999999999
v -0.17445227278524747 1.5610137195121951 0.9533749999999999
v -0.15625 1.43828125 0.9348191738241591
v -0.156 1.5610137195121951 0.9349227272147524
v -0.15625 1.43828125 0.9089308261758409
v -0.156 1.5610137195121951 0.9088272727852476
v -0.17455582617584076 1.43828125 0.890625
v -0.17445227278524747 1.5610137195121951 0.890375
v -0.20044417382415924 1.43828125 0.890625
v -0.20054772721475253 1.5610137195121951 0.890375
v -0.21875 1.43828125 0.9089308261758409
v -0.219 1.5610137195121951 0.9088272727852476
v -0.21875 1.43828125 0.9348191738241591
v -0.219 1.5610137195121951 0.9349227272147524
v -0.20044417382415924 1.43828125 0.953125
v -0.20054772721475253 1.5610137195121951 0.9533749999999999
v -0.1719669914110089 1.4466844512195123 0.9593750000000001
v -0.15 1.4466844512195123 0.9374080085889911
v -0.15 1.553391768292683 0.9374080085889911
v -0.1719669914110089 1.553391768292683 0.9593750000000001
v -0.15 1.4466844512195123 0.9063419914110089
v -0.15 1.553391768292683 0.9063419914110089
v -0.1719669914110089 1.4466844512195123 0.884375
v -0.1719669914110089 1.553391768292683 0.884375
v -0.2030330085889911 1.4466844512195123 0.884375
v -0.2030330085889911 1.553391768292683 0.884375
v -0.225 1.4466844512195123 0.9063419914110089
v -0.225 1.553391768292683 0.9063419914110089
v -0.225 1.4466844512195123 0.9374080085889911
v -0.225 1.553391768292683 0.9374080085889911
v -0.2030330085889911 1.4466844512195123 0.9593750000000001
v -0.2030330085889911 1.553391768292683 0.9593750000000001
v -0.215625 1.43828125 0.9102252435582566
v -0.19914975644174332 1.43828125 0.89375
v -0.17585024355825668 1.43828125 0.89375
v -0.159375 1.43828125 0.9102252435582566
v -0.159375 1.43828125 0.9335247564417434
v -0.17575704550672272 1.43828125 0.9502250000000001
v -0.19924295449327728 1.43828125 0.9502250000000001
v -0.215625 1.43828125 0.9335247564417434
v -0.15914999999999999 1.5610137195121951 0.9336179544932773
v -0.15914999999999999 1.5610137195121951 0.9101320455067227
v -0.1875 1.5610137195121951 0.921875
v -0.17575704550672272 1.5610137195121951 0.893525
v -0.19924295449327728 1.5610137195121951 0.893525
v -0.21585000000000001 1.5610137195121951 0.9101320455067227
v -0.21585000000000001 1.5610137195121951 0.9336179544932773
v -0.19924295449327728 1.5610137195121951 0.9502250000000001
v -0.17575704550672272 1.5610137195121951 0.9502250000000001
v -0.16623749999999998 1.44516006097561 0.9306822158699579
v -0.17869278413004205 1.44516006097561 0.9431375000000002
v -0.1875 1.4543064024390244 0.921875
v -0.16623749999999998 1.44516006097561 0.9130677841300421
v -0.17869278413004205 1.44516006097561 0.9006124999999999
v -0.19630721586995795 1.44516006097561 0.9006124999999999
v -0.20876250000000002 1.44516006097561 0.9130677841300421
v -0.20876250000000002 1.44516006097561 0.9306822158699579
v -0.19630721586995795 1.44516006097561 0.9431375000000002
v -0.17575704550672272 1.5640625 0.9502250000000001
v -0.19924295449327728 1.5640625 0.9502250000000001
v -0.20054772721475253 1.5640625 0.9533749999999999
v -0.17445227278524747 1.5640625 0.9533749999999999
v -0.15914999999999999 1.5640625 0.9336179544932773
v -0.156 1.5640625 0.9349227272147524
v -0.15914999999999999 1.5640625 0.9101320455067227
v -0.156 1.5640625 0.9088272727852476
v -0.17575704550672272 1.5640625 0.893525
v -0.17445227278524747 1.5640625 0.890375
v -0.19924295449327728 1.5640625 0.893525
v -0.20054772721475253 1.5640625 0.890375
v -0.21585000000000001 1.5640625 0.9101320455067227
v -0.219 1.5640625 0.9088272727852476
v -0.21585000000000001 1.5640625 0.9336179544932773
v -0.219 1.5640625 0.9349227272147524
vt 0.09539930555555555 0.7063368055555556
vt 0.06562499999999999 0.71484375
vt 0.06562499999999999 0.6765625
vt 0.015625 0.796875
vt 0.078125 0.796875
vt 0.078125 1
vt 0.015625 1
vt 0.59375 0.265625
vt 0.625 0.296875
vt 0.5703125 0.3203125
vt 0.10390624999999999 0.6765625
vt 0.09539930555555555 0.7063368055555556
vt 0.06562499999999999 0.6765625
vt 0 0.171875
vt 0.0625 0.171875
vt 0.0625 0.375
vt 0 0.375
vt 0.625 0.296875
vt 0.625 0.34375
vt 0.5703125 0.3203125
vt 0.09387138639160816 0.6456259815710957
vt 0.10390624999999999 0.6765625
vt 0.06562499999999999 0.6765625
vt 0.125 0.171875
vt 0.1875 0.171875
vt 0.1875 0.375
vt 0.125 0.375
vt 0.625 0.34375
vt 0.59375 0.375
vt 0.5703125 0.3203125
vt 0.06562499999999999 0.63828125
vt 0.09387138639160816 0.6456259815710957
vt 0.06562499999999999 0.6765625
vt 0.25 0.171875
vt 0.3125 0.171875
vt 0.3125 0.375
vt 0.25 0.375
vt 0.59375 0.375
vt 0.546875 0.375
vt 0.5703125 0.3203125
vt 0.03585069444444444 0.6467881944444445
vt 0.06562499999999999 0.63828125
vt 0.06562499999999999 0.6765625
vt 0.5 0.421875
vt 0.5625 0.421875
vt 0.5625 0.625
vt 0.5 0.625
vt 0.546875 0.375
vt 0.515625 0.34375
vt 0.5703125 0.3203125
vt 0.02734375 0.6765625
vt 0.03585069444444444 0.6467881944444445
vt 0.06562499999999999 0.6765625
vt 0.375 0.171875
vt 0.4375 0.171875
vt 0.4375 0.375
vt 0.375 0.375
vt 0.515625 0.34375
vt 0.515625 0.296875
vt 0.5703125 0.3203125
vt 0.03585069444444444 0.7063368055555556
vt 0.02734375 0.6765625
vt 0.06562499999999999 0.6765625
vt 0.625 0.546875
vt 0.6875 0.546875
vt 0.6875 0.75
vt 0.625 0.75
vt 0.515625 0.296875
vt 0.546875 0.265625
vt 0.5703125 0.3203125
vt 0.06562499999999999 0.71484375
vt 0.03585069444444444 0.7063368055555556
vt 0.06562499999999999 0.6765625
vt 0.625 0.796875
vt 0.6875 0.796875
vt 0.6875 1
vt 0.625 1
vt 0.546875 0.265625
vt 0.59375 0.265625
vt 0.5703125 0.3203125
vt 0.078125 0.796875
vt 0.015625 0.796875
vt 0.015625 0.7734375
vt 0.078125 0.7734375
vt 0.75 0.84375
vt 0.8125 0.84375
vt 0.8125 0.8671875
vt 0.75 0.8671875
vt 0.0625 0.171875
vt 0 0.171875
vt 0 0.1484375
vt 0.0625 0.1484375
vt 0.75 0.84375
vt 0.8125 0.84375
vt 0.8125 0.8671875
vt 0.75 0.8671875
vt 0.1875 0.171875
vt 0.125 0.171875
vt 0.125 0.1484375
vt 0.1875 0.1484375
vt 0.75 0.84375
vt 0.8125 0.84375
vt 0.8125 0.8671875
vt 0.75 0.8671875
vt 0.3125 0.171875
vt 0.25 0.171875
vt 0.25 0.1484375
vt 0.3125 0.1484375
vt 0.75 0.84375
vt 0.8125 0.84375
vt 0.8125 0.8671875
vt 0.75 0.8671875
vt 0.5625 0.421875
vt 0.5 0.421875
vt 0.5 0.3984375
vt 0.5625 0.3984375
vt 0.75 0.84375
vt 0.8125 0.84375
vt 0.8125 0.8671875
vt 0.75 0.8671875
vt 0.4375 0.171875
vt 0.375 0.171875
vt 0.375 0.1484375
vt 0.4375 0.1484375
vt 0.75 0.84375
vt 0.8125 0.84375
vt 0.8125 0.8671875
vt 0.75 0.8671875
vt 0.6875 0.546875
vt 0.625 0.546875
vt 0.625 0.5234375
vt 0.6875 0.5234375
vt 0.75 0.84375
vt 0.8125 0.84375
vt 0.8125 0.8671875
vt 0.75 0.8671875
vt 0.6875 0.796875
vt 0.625 0.796875
vt 0.625 0.7734375
vt 0.6875 0.7734375
vt 0.75 0.84375
vt 0.8125 0.84375
vt 0.8125 0.8671875
vt 0.75 0.8671875
vt 0.046875 0.609375
vt 0 0.609375
vt 0 0.625
vt 0.046875 0.625
vt 0.046875 0.625
vt 0 0.625
vt 0 0.609375
vt 0.046875 0.609375
vt 0.046875 0.625
vt 0 0.625
vt 0 0.609375
vt 0.046875 0.609375
vt 0.046875 0.609375
vt 0 0.609375
vt 0 0.625
vt 0.046875 0.625
vt 0 0.625
vt 0.046875 0.625
vt 0.046875 0.609375
vt 0 0.609375
vt 0 0.609375
vt 0.046875 0.609375
vt 0.046875 0.625
vt 0 0.625
vt 0 0.609375
vt 0.046875 0.609375
vt 0.046875 0.625
vt 0 0.625
vt 0 0.625
vt 0.046875 0.625
vt 0.046875 0.609375
vt 0 0.609375
vt 0.125 0.921875
vt 0.125 0.875
vt 0.140625 0.875
vt 0.140625 0.921875
vt 0.125 0.921875
vt 0.125 0.875
vt 0.140625 0.875
vt 0.140625 0.921875
vt 0.125 0.921875
vt 0.140625 0.921875
vt 0.140625 0.875
vt 0.125 0.875
vt 0.125 0.875
vt 0.125 0.921875
vt 0.140625 0.921875
vt 0.140625 0.875
vt 0.140625 0.875
vt 0.140625 0.921875
vt 0.125 0.921875
vt 0.125 0.875
vt 0.140625 0.875
vt 0.140625 0.921875
vt 0.125 0.921875
vt 0.125 0.875
vt 0.140625 0.875
vt 0.125 0.875
vt 0.125 0.921875
vt 0.140625 0.921875
vt 0.125 0.921875
vt 0.125 0.875
vt 0.140625 0.875
vt 0.140625 0.921875
vt 0.828125 0.8671875
vt 0.875 0.8671875
vt 0.875 0.84765625
vt 0.828125 0.84765625
vt 0.828125 0.8671875
vt 0.875 0.8671875
vt 0.875 0.84765625
vt 0.828125 0.84765625
vt 0.875 0.8671875
vt 0.828125 0.8671875
vt 0.828125 0.84765625
vt 0.875 0.84765625
vt 0.875 0.8671875
vt 0.828125 0.8671875
vt 0.828125 0.84765625
vt 0.875 0.84765625
vt 0.875 0.8671875
vt 0.828125 0.8671875
vt 0.828125 0.84765625
vt 0.875 0.84765625
vt 0.875 0.8671875
vt 0.828125 0.8671875
vt 0.828125 0.84765625
vt 0.875 0.84765625
vt 0.828125 0.8671875
vt 0.875 0.8671875
vt 0.875 0.84765625
vt 0.828125 0.84765625
vt 0.828125 0.8671875
vt 0.875 0.8671875
vt 0.875 0.84765625
vt 0.828125 0.84765625
vt 0.171875 0.75
vt 0.125 0.75
vt 0.125 0.734375
vt 0.171875 0.734375
vt 0.296875 0.875
vt 0.25 0.875
vt 0.25 0.859375
vt 0.296875 0.859375
vt 0.546875 1
vt 0.5 1
vt 0.5 0.984375
vt 0.546875 0.984375
vt 0.546875 0.875
vt 0.5 0.875
vt 0.5 0.859375
vt 0.546875 0.859375
vt 0.296875 0.75
vt 0.25 0.75
vt 0.25 0.734375
vt 0.296875 0.734375
vt 0.421875 1
vt 0.375 1
vt 0.375 0.984375
vt 0.421875 0.984375
vt 0.546875 0.75
vt 0.5 0.75
vt 0.5 0.734375
vt 0.546875 0.734375
vt 0.421875 0.625
vt 0.375 0.625
vt 0.375 0.609375
vt 0.421875 0.609375
vt 0.171875 0.625
vt 0.125 0.625
vt 0.125 0.609375
vt 0.171875 0.609375
vt 0.421875 0.875
vt 0.375 0.875
vt 0.375 0.859375
vt 0.421875 0.859375
vt 0.421875 0.5
vt 0.375 0.5
vt 0.375 0.484375
vt 0.421875 0.484375
vt 0.046875 0.5
vt 0 0.5
vt 0 0.484375
vt 0.046875 0.484375
vt 0.296875 0.625
vt 0.25 0.625
vt 0.25 0.609375
vt 0.296875 0.609375
vt 0.421875 0.75
vt 0.375 0.75
vt 0.375 0.734375
vt 0.421875 0.734375
vt 0.171875 0.5
vt 0.125 0.5
vt 0.125 0.484375
vt 0.171875 0.484375
vt 0.296875 0.5
vt 0.25 0.5
vt 0.25 0.484375
vt 0.296875 0.484375
vn -0.2794161721627555 -0.9186148297669865 -0.27941617216275116
vn 0.7071067811865489 0 0.7071067811865461
vn 0 1 0
vn -0.3951541402189422 -0.9186148297669859 0
vn 1 0 0
vn 0 1 0
vn -0.27941617216275466 -0.918614829766986 0.2794161721627528
vn 0.7071067811865471 0 -0.7071067811865479
vn 0 1 0
vn 0 -0.9186148297669864 0.39515414021894135
vn 0 0 -1
vn 0 1 0
vn 0.27941617216275466 -0.918614829766986 0.2794161721627528
vn -0.7071067811865471 0 -0.7071067811865479
vn 0 1 0
vn 0.3951541402189422 -0.9186148297669859 0
vn -1 0 0
vn 0 1 0
vn 0.2794161721627555 -0.9186148297669865 -0.27941617216275116
vn -0.7071067811865489 0 0.7071067811865461
vn 0 1 0
vn 0 -0.918614829766987 -0.3951541402189396
vn 0 0 1
vn 0 1 0
vn 0.5754705093548691 -0.5810915467684054 0.5754705093548669
vn 0.5556097747400496 0.6185430918106071 0.5556097747400475
vn 0.8023953182409409 -0.596792889757426 0
vn 0.7857508788244398 0.6185430918106035 0
vn 0.5673791707205043 -0.5967928897574307 -0.567379170720505
vn 0.5556097747400504 0.6185430918106032 -0.5556097747400511
vn 0 -0.5967928897574243 -0.8023953182409422
vn 0 0.6185430918106035 -0.7857508788244398
vn -0.5673791707205074 -0.596792889757425 -0.567379170720508
vn -0.5556097747400484 0.6185430918106068 -0.5556097747400491
vn -0.8023953182409409 -0.596792889757426 0
vn -0.7857508788244398 0.6185430918106035 0
vn -0.5673791707205055 -0.5967928897574313 0.5673791707205034
vn -0.5556097747400465 0.6185430918106127 0.5556097747400444
vn 0 -0.596792889757431 0.8023953182409372
vn 0 0.6185430918106176 0.7857508788244287
vn 0 -1 0
vn 0 -1 0
vn 0 -1 0
vn 0 -1 0
vn 0 -1 0
vn 0 -1 0
vn 0 -1 0
vn 0 -1 0
vn 0 1 0
vn 0 1 0
vn 0 1 0
vn 0 1 0
vn 0 1 0
vn 0 1 0
vn 0 1 0
vn 0 1 0
vn -0.5005931487749167 -0.7062669458492562 -0.5005931487749088
vn -0.7079456202285387 -0.7062669458492516 0
vn -0.5005931487749206 -0.7062669458492475 0.5005931487749172
vn 0 -0.7062669458492459 0.7079456202285445
vn 0.5005931487749149 -0.7062669458492556 0.5005931487749116
vn 0.7079456202285387 -0.7062669458492516 0
vn 0.49247386733166004 -0.7175924888060109 -0.4924738673316524
vn 0 -0.7175924888060098 -0.6964632222947574
vn 0 0 -1
vn 0 0 1
vn -0.7071067811865481 0 -0.707106781186547
vn 0.7071067811865465 0 0.7071067811865486
vn -1 0 0
vn 1 0 0
vn -0.7071067811865458 0 0.7071067811865493
vn 0.7071067811865487 0 -0.7071067811865465
vn 0 0 1
vn 0 0 -1
vn 0.7071067811865458 0 0.7071067811865493
vn -0.7071067811865487 0 -0.7071067811865465
vn 1 0 0
vn -1 0 0
vn 0.7071067811865481 0 -0.707106781186547
vn -0.7071067811865465 0 0.7071067811865486
usemtl m_36922db6-cfc8-f16c-3085-850258ef1f6a
f 50/1/1 51/2/1 52/3/1
f 17/4/2 18/5/2 19/6/2 20/7/2
f 49/8/3 41/9/3 43/10/3
f 53/11/4 50/12/4 52/13/4
f 18/14/5 21/15/5 22/16/5 19/17/5
f 41/18/6 42/19/6 43/20/6
f 54/21/7 53/22/7 52/23/7
f 21/24/8 23/25/8 24/26/8 22/27/8
f 42/28/9 44/29/9 43/30/9
f 55/31/10 54/32/10 52/33/10
f 23/34/11 25/35/11 26/36/11 24/37/11
f 44/38/12 45/39/12 43/40/12
f 56/41/13 55/42/13 52/43/13
f 25/44/14 27/45/14 28/46/14 26/47/14
f 45/48/15 46/49/15 43/50/15
f 57/51/16 56/52/16 52/53/16
f 27/54/17 29/55/17 30/56/17 28/57/17
f 46/58/18 47/59/18 43/60/18
f 58/61/19 57/62/19 52/63/19
f 29/64/20 31/65/20 32/66/20 30/67/20
f 47/68/21 48/69/21 43/70/21
f 51/71/22 58/72/22 52/73/22
f 31/74/23 17/75/23 20/76/23 32/77/23
f 48/78/24 49/79/24 43/80/24
f 18/81/25 17/82/25 1/83/25 3/84/25
f 20/85/26 19/86/26 4/87/26 2/88/26
f 21/89/27 18/90/27 3/91/27 5/92/27
f 19/93/28 22/94/28 6/95/28 4/96/28
f 23/97/29 21/98/29 5/99/29 7/100/29
f 22/101/30 24/102/30 8/103/30 6/104/30
f 25/105/31 23/106/31 7/107/31 9/108/31
f 24/109/32 26/110/32 10/111/32 8/112/32
f 27/113/33 25/114/33 9/115/33 11/116/33
f 26/117/34 28/118/34 12/119/34 10/120/34
f 29/121/35 27/122/35 11/123/35 13/124/35
f 28/125/36 30/126/36 14/127/36 12/128/36
f 31/129/37 29/130/37 13/131/37 15/132/37
f 30/133/38 32/134/38 16/135/38 14/136/38
f 17/137/39 31/138/39 15/139/39 1/140/39
f 32/141/40 20/142/40 2/143/40 16/144/40
f 34/145/41 33/146/41 11/147/41 9/148/41
f 35/149/42 34/150/42 9/151/42 7/152/42
f 36/153/43 35/154/43 7/155/43 5/156/43
f 37/157/44 36/158/44 5/159/44 3/160/44
f 38/161/45 37/162/45 3/163/45 1/164/45
f 39/165/46 38/166/46 1/167/46 15/168/46
f 40/169/47 39/170/47 15/171/47 13/172/47
f 33/173/48 40/174/48 13/175/48 11/176/48
f 65/177/49 63/178/49 64/179/49 66/180/49
f 67/181/50 65/182/50 66/183/50 68/184/50
f 69/185/51 67/186/51 68/187/51 70/188/51
f 73/189/52 71/190/52 72/191/52 74/192/52
f 71/193/53 69/194/53 70/195/53 72/196/53
f 60/197/54 73/198/54 74/199/54 61/200/54
f 59/201/55 60/202/55 61/203/55 62/204/55
f 63/205/56 59/206/56 62/207/56 64/208/56
f 51/209/57 50/210/57 37/211/57 38/212/57
f 50/213/58 53/214/58 36/215/58 37/216/58
f 53/217/59 54/218/59 35/219/59 36/220/59
f 54/221/60 55/222/60 34/223/60 35/224/60
f 55/225/61 56/226/61 33/227/61 34/228/61
f 56/229/62 57/230/62 40/231/62 33/232/62
f 57/233/63 58/234/63 39/235/63 40/236/63
f 58/237/64 51/238/64 38/239/64 39/240/64
f 60/241/65 59/242/65 49/243/65 48/244/65
f 62/245/66 61/246/66 16/247/66 2/248/66
f 59/249/67 63/250/67 41/251/67 49/252/67
f 64/253/68 62/254/68 2/255/68 4/256/68
f 63/257/69 65/258/69 42/259/69 41/260/69
f 66/261/70 64/262/70 4/263/70 6/264/70
f 65/265/71 67/266/71 44/267/71 42/268/71
f 68/269/72 66/270/72 6/271/72 8/272/72
f 67/273/73 69/274/73 45/275/73 44/276/73
f 70/277/74 68/278/74 8/279/74 10/280/74
f 69/281/75 71/282/75 46/283/75 45/284/75
f 72/285/76 70/286/76 10/287/76 12/288/76
f 71/289/77 73/290/77 47/291/77 46/292/77
f 74/293/78 72/294/78 12/295/78 14/296/78
f 73/297/79 60/298/79 48/299/79 47/300/79
f 61/301/80 74/302/80 14/303/80 16/304/80